<?xml version="1.0" encoding="UTF-8" standalone="no"?>
<!DOCTYPE svg PUBLIC "-//W3C//DTD SVG 1.1//EN" "http://www.w3.org/Graphics/SVG/1.1/DTD/svg11.dtd">
<svg width="100%" height="100%" viewBox="0 0 234 239" version="1.1" xmlns="http://www.w3.org/2000/svg" xmlns:xlink="http://www.w3.org/1999/xlink" xml:space="preserve" xmlns:serif="http://www.serif.com/" style="fill-rule:evenodd;clip-rule:evenodd;stroke-linejoin:round;stroke-miterlimit:2;">
    <g transform="matrix(5.55556,0,0,5.55556,0,0)">
        <g transform="matrix(1,0,0,1,-0.05,0.02)">
            <path d="M20.19,7.91L20.19,4.12L20.94,5.2L24.24,9.92L24.67,10.55C24.904,10.897 25.354,11.032 25.74,10.87L30.4,9.23C32.08,8.64 33.76,8.06 35.4,7.45C35.905,7.229 36.449,7.11 37,7.1C37.879,7.117 38.704,7.534 39.24,8.23C39.681,8.784 39.921,9.472 39.92,10.18C39.927,11.012 39.632,11.819 39.09,12.45C38.52,13.16 37.99,13.91 37.43,14.64L35.58,17.07L33,20.49C32.908,20.6 32.824,20.717 32.75,20.84C32.604,21.22 32.703,21.652 33,21.93C33.36,22.4 33.71,22.88 34.08,23.35L35.89,25.68C36.4,26.33 36.89,26.99 37.4,27.68L39,29.78C39.39,30.225 39.699,30.737 39.91,31.29C39.91,31.53 39.96,31.77 40,32L40,32.2C40,32.778 39.834,33.344 39.52,33.83C38.878,34.988 37.519,35.565 36.24,35.22C35.365,34.972 34.504,34.678 33.66,34.34C31.85,33.7 30.03,33.08 28.21,32.45L26,31.7C25.565,31.479 25.031,31.583 24.71,31.95C24.492,32.217 24.292,32.497 24.11,32.79C23.44,33.79 22.76,34.71 22.11,35.67L19,40.32C18.71,40.851 18.307,41.312 17.82,41.67C17.471,41.859 17.102,42.01 16.72,42.12L15.6,42.12C15.253,42.019 14.918,41.881 14.6,41.71C13.898,41.258 13.415,40.532 13.27,39.71C13.198,39.402 13.161,39.086 13.16,38.77L13.16,17.15C13.124,16.137 13.337,15.131 13.78,14.22C14.148,13.411 14.81,12.772 15.63,12.43C16.006,12.243 16.286,11.905 16.4,11.5C16.555,11.055 16.645,10.59 16.67,10.12C16.77,7.22 16.67,4.33 16.67,1.44C16.659,1.017 16.899,0.624 17.28,0.44L17.94,0.44C18.2,0.58 18.49,0.7 18.57,1.04C18.58,1.12 18.58,1.2 18.57,1.28L18.57,10.22C18.593,11.282 18.297,12.328 17.72,13.22C17.389,13.7 16.942,14.089 16.42,14.35C15.782,14.697 15.317,15.296 15.14,16C15.028,16.444 14.981,16.902 15,17.36L15,38.85C15.035,39.493 15.574,40.003 16.218,40.003C16.249,40.003 16.279,40.002 16.31,40L16.54,40C16.821,39.847 17.053,39.619 17.21,39.34C17.42,39.05 17.6,38.74 17.79,38.43L18.91,36.82L22.45,31.62C22.815,30.904 23.346,30.287 24,29.82C24.662,29.439 25.441,29.311 26.19,29.46C27.058,29.701 27.912,29.989 28.75,30.32L33.9,32.1C34.9,32.43 35.79,32.78 36.75,33.1C37.07,33.211 37.427,33.101 37.63,32.83C37.908,32.579 38.004,32.18 37.87,31.83C37.701,31.458 37.468,31.12 37.18,30.83C36.18,29.48 35.11,28.14 34.08,26.83C33.26,25.77 32.46,24.68 31.62,23.63C30.879,22.881 30.511,21.838 30.62,20.79C30.667,20.363 30.811,19.953 31.04,19.59C31.57,18.79 32.19,18.05 32.76,17.28C33.55,16.21 34.35,15.16 35.14,14.11C35.93,13.06 36.8,11.94 37.62,10.85C37.754,10.699 37.825,10.502 37.82,10.3C37.854,9.755 37.435,9.277 36.89,9.24C36.747,9.23 36.604,9.25 36.47,9.3C35.47,9.64 34.47,10.01 33.54,10.3C31.36,11.07 29.18,11.82 27.02,12.61C26.3,12.923 25.506,13.027 24.73,12.91C24.062,12.829 23.446,12.505 23,12C22.19,10.9 21.43,9.75 20.64,8.63C20.517,8.374 20.366,8.133 20.19,7.91Z" style="fill:rgb(45,49,50);fill-rule:nonzero;"/>
        </g>
        <g transform="matrix(1,0,0,1,-0.05,0.02)">
            <path d="M7.27,0.39C7.668,0.599 7.896,1.034 7.84,1.48L7.84,10C7.833,10.622 7.967,11.237 8.23,11.8C8.399,12.151 8.691,12.429 9.05,12.58C9.698,12.89 10.241,13.384 10.61,14C11.036,14.696 11.302,15.478 11.39,16.29C11.42,16.716 11.42,17.144 11.39,17.57L11.39,41C11.391,41.475 11.015,41.874 10.54,41.9C10.132,41.895 9.767,41.64 9.62,41.26C9.61,41.177 9.61,41.093 9.62,41.01L9.62,17.1C9.638,16.334 9.422,15.58 9,14.94C8.813,14.661 8.558,14.434 8.26,14.28C7.23,13.772 6.491,12.815 6.26,11.69C6.123,11.217 6.036,10.731 6,10.24C5.94,7.82 6,5.39 6,3L6,1.57C5.939,1.089 6.182,0.618 6.61,0.39L7.27,0.39Z" style="fill:rgb(45,49,50);fill-rule:nonzero;"/>
        </g>
        <g transform="matrix(1,0,0,1,-0.05,0.02)">
            <path d="M8,23.71C8.12,23.71 8.1,23.8 8.1,23.87L8.1,25.87C8.1,26.05 8.03,26.05 7.91,26.01L4.46,25C3.66,24.77 2.85,24.59 2.08,24.31C1.023,23.986 0.235,23.09 0.05,22L0.05,20.67C0.161,20.32 0.312,19.985 0.5,19.67C0.928,19.049 1.568,18.604 2.3,18.42C3.19,18.17 4.07,17.88 4.96,17.61L7.96,16.66L7.96,18.84L5.96,19.45L2.84,20.37C2.415,20.494 2.12,20.887 2.12,21.33C2.12,21.773 2.415,22.166 2.84,22.29L7.04,23.5C7.349,23.612 7.672,23.683 8,23.71Z" style="fill:rgb(45,49,50);fill-rule:nonzero;"/>
        </g>
        <g transform="matrix(1,0,0,1,-0.05,0.02)">
            <path d="M11.44,5.85L11.44,10.06C11.458,10.327 11.392,10.593 11.25,10.82C11.02,11.093 10.661,11.223 10.31,11.16C9.949,11.1 9.665,10.812 9.61,10.45C9.59,10.244 9.59,10.036 9.61,9.83L9.61,1.6C9.558,1.161 9.822,0.743 10.24,0.6C10.709,0.434 11.232,0.682 11.4,1.15C11.404,1.197 11.404,1.243 11.4,1.29C11.435,1.956 11.435,2.624 11.4,3.29C11.45,4.1 11.44,5 11.44,5.85Z" style="fill:rgb(45,49,50);fill-rule:nonzero;"/>
        </g>
        <g transform="matrix(1,0,0,1,-0.05,0.02)">
            <path d="M14.89,5.86L14.89,10.28C14.892,10.301 14.892,10.321 14.892,10.342C14.892,10.77 14.557,11.13 14.13,11.16C13.671,11.239 13.225,10.936 13.13,10.48C13.11,10.351 13.11,10.219 13.13,10.09L13.13,1.55C13.128,1.526 13.127,1.503 13.127,1.479C13.127,0.983 13.524,0.57 14.02,0.55C14.187,0.541 14.354,0.579 14.5,0.66C14.759,0.792 14.914,1.07 14.89,1.36C14.9,2.88 14.89,4.37 14.89,5.86Z" style="fill:rgb(45,49,50);fill-rule:nonzero;"/>
        </g>
        <g transform="matrix(1,0,0,1,-0.05,0.02)">
            <path d="M8,23.71C7.692,23.68 7.389,23.61 7.1,23.5L2.87,22.29C2.445,22.166 2.15,21.773 2.15,21.33C2.15,20.887 2.445,20.494 2.87,20.37L6,19.45L8,18.84L8,23.71Z" style="fill:rgb(214,21,22);fill-rule:nonzero;"/>
        </g>
        <g transform="matrix(1,0,0,1,-0.05,0.02)">
            <path d="M20.19,7.91C20.378,8.11 20.543,8.332 20.68,8.57C21.47,9.69 22.23,10.84 23.04,11.94C23.468,12.476 24.082,12.833 24.76,12.94C25.536,13.057 26.33,12.953 27.05,12.64C29.21,11.85 31.39,11.1 33.57,10.33C34.57,9.99 35.57,9.62 36.5,9.28C36.613,9.237 36.734,9.215 36.855,9.215C37.27,9.215 37.643,9.473 37.79,9.86C37.84,9.994 37.86,10.137 37.85,10.28C37.855,10.482 37.784,10.679 37.65,10.83C36.83,11.92 36,13 35.17,14.09C34.34,15.18 33.58,16.19 32.79,17.26C32.22,18.03 31.6,18.77 31.07,19.57C30.841,19.933 30.697,20.343 30.65,20.77C30.541,21.818 30.909,22.861 31.65,23.61C32.49,24.66 33.29,25.75 34.11,26.81C35.11,28.16 36.19,29.5 37.21,30.81C37.498,31.1 37.731,31.438 37.9,31.81C38.034,32.16 37.938,32.559 37.66,32.81C37.457,33.081 37.1,33.191 36.78,33.08C35.78,32.78 34.88,32.43 33.93,32.08L28.79,30.3C27.952,29.969 27.098,29.681 26.23,29.44C25.468,29.281 24.673,29.409 24,29.8C23.347,30.245 22.809,30.837 22.43,31.53L18.89,36.73L17.77,38.34L17.5,38.34C16.96,38.34 16.81,38.09 16.66,37.64C16.613,37.427 16.596,37.208 16.61,36.99C16.51,34.12 16.61,31.26 16.55,28.39C16.47,24.57 16.55,20.76 16.55,16.94C16.584,16.493 16.74,16.065 17,15.7C17.082,15.57 17.205,15.472 17.35,15.42C18.706,14.683 19.67,13.382 19.98,11.87C20.115,11.255 20.192,10.629 20.21,10C20.168,9.304 20.161,8.607 20.19,7.91Z" style="fill:rgb(214,21,22);fill-rule:nonzero;"/>
        </g>
    </g>
</svg>
