<svg xmlns="http://www.w3.org/2000/svg" viewBox="0 0 257.02 45.02"><title>Eng_black</title><path d="M50.77,16H48.56v8.89H45V.39h6.33c4.69,0,7.35,2.8,7.35,7.66,0,3.82-1.61,6.44-4.41,7.46l5.32,9.38H55.7Zm-2.21-3.36h2.73c2.49,0,3.78-1.61,3.78-4.52s-1.29-4.37-3.74-4.37H48.56Z" transform="translate(-0.05 0.02)" style="fill:#2b2b2b"/><path d="M74.64,19.11c-.32,3.92-2.73,6.16-6.72,6.16s-6.27-2.52-6.27-6.93V12.85C61.65,8.47,64.07,6,68,6s6.44,2.48,6.44,6.86V17H65.05v1.4c0,2.51,1.08,3.65,3,3.65,2.06,0,2.94-.91,3.25-2.91Zm-9.59-6.3v1.58h6V12.81c0-2.52-1.12-3.64-3-3.64S65.05,10.29,65.05,12.81Z" transform="translate(-0.05 0.02)" style="fill:#2b2b2b"/><path d="M76.81,19.22h3.36a2.85,2.85,0,0,0,2.7,3,2.57,2.57,0,0,0,.48,0c1.79,0,2.8-.87,2.8-2.31,0-3.71-9.06-2.45-9.06-8.75C77.09,8,79.43,6,83,6c3.92,0,6,2.45,6.12,5.88H85.84a2.55,2.55,0,0,0-2.26-2.81,2.81,2.81,0,0,0-.58,0c-1.61,0-2.59.8-2.59,2.1,0,3.5,9.1,2.13,9.1,8.75,0,3.25-2.31,5.42-6.13,5.42C79.22,25.34,76.84,22.61,76.81,19.22Z" transform="translate(-0.05 0.02)" style="fill:#2b2b2b"/><path d="M100.64,21.91V25.1H99.35c-3.68,0-5.85-2.35-5.85-6.16V9.52H90.91V6.44H93.5V2.07h3.36V6.44h3.43V9.52H96.86V19c0,2,.84,2.94,2.66,2.94Z" transform="translate(-0.05 0.02)" style="fill:#2b2b2b"/><path d="M115.38,12.64V24.89h-2.77l-.24-1.72a4.54,4.54,0,0,1-4.1,2.17,5.36,5.36,0,0,1-5.67-5,5,5,0,0,1,0-.67c0-3.78,2.63-5.71,6.69-5.71H112V12.64c0-2.17-.8-3.4-2.66-3.4a2.58,2.58,0,0,0-2.79,2.37.22.22,0,0,0,0,.08h-3.39c.17-3.53,2.55-5.7,6.26-5.7C113.35,6,115.38,8.4,115.38,12.64ZM112,16.87h-2.69c-2.07,0-3.26.95-3.26,2.77s1.09,2.69,2.94,2.69a2.79,2.79,0,0,0,3-2.57,2.29,2.29,0,0,0,0-.37Z" transform="translate(-0.05 0.02)" style="fill:#2b2b2b"/><path d="M131.79,6.44V24.89h-2.41L129,22.82a5,5,0,0,1-4.59,2.52c-3.18,0-5.18-2.27-5.18-7.31V6.44h3.4V17.85c0,3,.8,4.27,2.59,4.27s3.15-1.54,3.15-4.27V6.44Z" transform="translate(-0.05 0.02)" style="fill:#2b2b2b"/><path d="M145.3,6.3V9.66a5.66,5.66,0,0,0-2.3-.42c-2.31,0-3.78,1.51-3.78,4.27V24.89h-3.4V6.44h2.42l.38,2.14A5.88,5.88,0,0,1,145.3,6.3Z" transform="translate(-0.05 0.02)" style="fill:#2b2b2b"/><path d="M159.44,12.64V24.89h-2.76l-.25-1.72a4.5,4.5,0,0,1-4.09,2.17,5.35,5.35,0,0,1-5.67-5,4,4,0,0,1,0-.69c0-3.78,2.62-5.71,6.68-5.71h2.7V12.64c0-2.17-.81-3.4-2.66-3.4a2.58,2.58,0,0,0-2.79,2.35.34.34,0,0,0,0,.1h-3.4c.18-3.53,2.56-5.7,6.27-5.7C157.41,6,159.44,8.4,159.44,12.64Zm-3.39,4.23h-2.7c-2.06,0-3.25.95-3.25,2.77s1.08,2.69,2.94,2.69a2.81,2.81,0,0,0,3-2.59c0-.12,0-.23,0-.35Z" transform="translate(-0.05 0.02)" style="fill:#2b2b2b"/><path d="M176,13.3V24.89h-3.39V13.48c0-3-.81-4.27-2.59-4.27-1.93,0-3.15,1.54-3.15,4.27V24.89h-3.4V6.44h2.42l.35,2.07A5,5,0,0,1,170.85,6C174,6,176,8.26,176,13.3Z" transform="translate(-0.05 0.02)" style="fill:#2b2b2b"/><path d="M188.07,21.91V25.1h-1.29c-3.68,0-5.85-2.35-5.85-6.16V9.52h-2.59V6.44h2.59V2.07h3.36V6.44h3.43V9.52h-3.43V19c0,2,.84,2.94,2.66,2.94Z" transform="translate(-0.05 0.02)" style="fill:#2b2b2b"/><path d="M198.22,17.61v-10c0-5,2.73-7.63,7.18-7.63s7,2.63,7.14,7.46H209c-.14-2.84-1.4-4.06-3.64-4.06s-3.57,1.29-3.57,4.27v9.94c0,3,1.4,4.27,3.67,4.27s3.75-1.3,3.75-4.1V14.7h-3.89V11.55h7.35v6.23c-.07,4.8-2.83,7.49-7.24,7.49S198.22,22.58,198.22,17.61Z" transform="translate(-0.05 0.02)" style="fill:#2b2b2b"/><path d="M228.57,6.44V24.89h-2.42l-.35-2.07a5,5,0,0,1-4.58,2.52C218,25.34,216,23.07,216,18V6.44h3.39V17.85c0,3,.81,4.27,2.59,4.27s3.15-1.54,3.15-4.27V6.44Z" transform="translate(-0.05 0.02)" style="fill:#2b2b2b"/><path d="M242.08,6.3V9.66a5.56,5.56,0,0,0-2.28-.42c-2.31,0-3.78,1.51-3.78,4.27V24.89h-3.39V6.44H235l.39,2.14A5.15,5.15,0,0,1,240.15,6,5.27,5.27,0,0,1,242.08,6.3Z" transform="translate(-0.05 0.02)" style="fill:#2b2b2b"/><path d="M256.88,6.44V24.89h-2.41l-.35-2.07a5,5,0,0,1-4.59,2.52c-3.18,0-5.18-2.27-5.18-7.31V6.44h3.4V17.85c0,3,.8,4.27,2.59,4.27s3.15-1.54,3.15-4.27V6.44Z" transform="translate(-0.05 0.02)" style="fill:#2b2b2b"/><path d="M50.78,37H45.92v4.24h5.59V42H45V31.62h6.43v.75H45.92v3.92h4.86Z" transform="translate(-0.05 0.02)" style="fill:#2b2b2b"/><path d="M55.59,37.43l2.08-3.14h1l-2.62,3.8L58.8,42h-1l-2.2-3.27L53.4,42h-1l2.73-3.93-2.62-3.8h1Z" transform="translate(-0.05 0.02)" style="fill:#2b2b2b"/><path d="M66.48,38.24a4.55,4.55,0,0,1-.8,2.86,2.51,2.51,0,0,1-2.14,1.06,2.88,2.88,0,0,1-2.43-1.11v4h-.85V34.29h.8v1.1a2.73,2.73,0,0,1,2.42-1.24,2.57,2.57,0,0,1,2.17,1.05,4.77,4.77,0,0,1,.79,2.91Zm-.85-.15A4,4,0,0,0,65,35.75a2,2,0,0,0-1.69-.86,2.38,2.38,0,0,0-1.35.38,2.41,2.41,0,0,0-.87,1.1v3.71a2.3,2.3,0,0,0,.88,1,2.48,2.48,0,0,0,1.35.35A1.94,1.94,0,0,0,65,40.58,4.3,4.3,0,0,0,65.63,38.09Z" transform="translate(-0.05 0.02)" style="fill:#2b2b2b"/><path d="M69.33,42h-.86V31h.86Z" transform="translate(-0.05 0.02)" style="fill:#2b2b2b"/><path d="M71.18,38a4.45,4.45,0,0,1,.43-2,3.24,3.24,0,0,1,3-1.89,3.18,3.18,0,0,1,2.5,1.08,4.18,4.18,0,0,1,1,2.87v.18a4.46,4.46,0,0,1-.44,2,3.18,3.18,0,0,1-1.21,1.38,3.41,3.41,0,0,1-1.79.48A3.18,3.18,0,0,1,72.17,41a4.18,4.18,0,0,1-1-2.87Zm.86.24a3.55,3.55,0,0,0,.71,2.27,2.31,2.31,0,0,0,1.89.89,2.27,2.27,0,0,0,1.87-.89,3.58,3.58,0,0,0,.72-2.34V38a3.92,3.92,0,0,0-.33-1.62,2.76,2.76,0,0,0-.9-1.1,2.51,2.51,0,0,0-1.36-.4,2.26,2.26,0,0,0-1.86.9A3.59,3.59,0,0,0,72,38.12Z" transform="translate(-0.05 0.02)" style="fill:#2b2b2b"/><path d="M83.41,35a3.79,3.79,0,0,0-.58,0,2.11,2.11,0,0,0-1.35.45,2.48,2.48,0,0,0-.79,1.3V42h-.85V34.29h.84v1.23a2.27,2.27,0,0,1,2.18-1.37,1.21,1.21,0,0,1,.56.1Z" transform="translate(-0.05 0.02)" style="fill:#2b2b2b"/><path d="M87.75,42.16a3.29,3.29,0,0,1-3-1.84,4.21,4.21,0,0,1-.44-1.94v-.31a4.45,4.45,0,0,1,.43-2,3.42,3.42,0,0,1,1.2-1.41,3,3,0,0,1,1.67-.51,2.77,2.77,0,0,1,2.23,1,3.91,3.91,0,0,1,.83,2.63v.47H85.14v.17a3.23,3.23,0,0,0,.75,2.19,2.41,2.41,0,0,0,1.9.87A2.7,2.7,0,0,0,89,41.19a2.6,2.6,0,0,0,1-.8l.54.41A3.11,3.11,0,0,1,87.75,42.16Zm-.16-7.28a2.12,2.12,0,0,0-1.62.71,3.21,3.21,0,0,0-.8,1.9H89.8v-.1a2.84,2.84,0,0,0-.64-1.81A2,2,0,0,0,87.59,34.88Z" transform="translate(-0.05 0.02)" style="fill:#2b2b2b"/><path d="M100.75,42a3.59,3.59,0,0,1-.17-1.08,3.07,3.07,0,0,1-1.14.91,3.61,3.61,0,0,1-1.48.31,2.57,2.57,0,0,1-1.8-.62,2.09,2.09,0,0,1,.25-3.3A4.47,4.47,0,0,1,99,37.53h1.55v-.88a1.67,1.67,0,0,0-.51-1.3,2.08,2.08,0,0,0-1.49-.48,2.34,2.34,0,0,0-1.47.46,1.38,1.38,0,0,0-.59,1.1h-.86a2,2,0,0,1,.86-1.59,3.33,3.33,0,0,1,2.11-.68,3,3,0,0,1,2,.65,2.33,2.33,0,0,1,.76,1.8v3.66a4.32,4.32,0,0,0,.24,1.67V42Zm-2.69-.61A2.82,2.82,0,0,0,99.59,41a2.42,2.42,0,0,0,1-1.1V38.2H99.05a3.85,3.85,0,0,0-2,.46A1.46,1.46,0,0,0,96.81,41a1.83,1.83,0,0,0,1.25.41Z" transform="translate(-0.05 0.02)" style="fill:#2b2b2b"/><path d="M104.66,42h-.86V31h.86Z" transform="translate(-0.05 0.02)" style="fill:#2b2b2b"/><path d="M107.93,42h-.85V31h.85Z" transform="translate(-0.05 0.02)" style="fill:#2b2b2b"/><path d="M117.38,35a3.79,3.79,0,0,0-.58,0,2.11,2.11,0,0,0-1.35.45,2.48,2.48,0,0,0-.79,1.3V42h-.85V34.29h.84v1.23a2.27,2.27,0,0,1,2.18-1.37,1.21,1.21,0,0,1,.56.1Z" transform="translate(-0.05 0.02)" style="fill:#2b2b2b"/><path d="M121.72,42.16a3.29,3.29,0,0,1-3-1.84,4.21,4.21,0,0,1-.44-1.94v-.31a4.45,4.45,0,0,1,.43-2,3.42,3.42,0,0,1,1.2-1.41,3,3,0,0,1,1.67-.51,2.79,2.79,0,0,1,2.24,1,4,4,0,0,1,.82,2.63v.47h-5.51v.17a3.23,3.23,0,0,0,.75,2.19,2.44,2.44,0,0,0,1.9.87,2.79,2.79,0,0,0,1.21-.25,2.6,2.6,0,0,0,1-.8l.54.41A3.13,3.13,0,0,1,121.72,42.16Zm-.16-7.28a2.12,2.12,0,0,0-1.62.71,3.21,3.21,0,0,0-.8,1.9h4.63v-.1a2.77,2.77,0,0,0-.63-1.81A2,2,0,0,0,121.56,34.88Z" transform="translate(-0.05 0.02)" style="fill:#2b2b2b"/><path d="M130.91,40.06a1.18,1.18,0,0,0-.51-1,3.89,3.89,0,0,0-1.54-.61,6.83,6.83,0,0,1-1.59-.5,2.12,2.12,0,0,1-.85-.69,1.77,1.77,0,0,1-.27-1,1.83,1.83,0,0,1,.76-1.51,3.06,3.06,0,0,1,2-.6,3.21,3.21,0,0,1,2.07.64,2,2,0,0,1,.78,1.67h-.85a1.39,1.39,0,0,0-.57-1.13,2.55,2.55,0,0,0-2.78-.07,1.13,1.13,0,0,0-.52,1,1.09,1.09,0,0,0,.43.9,4.55,4.55,0,0,0,1.55.58,6.64,6.64,0,0,1,1.68.56,2.25,2.25,0,0,1,.84.72,1.86,1.86,0,0,1,.27,1,1.88,1.88,0,0,1-.79,1.57,3.37,3.37,0,0,1-2.06.58,3.51,3.51,0,0,1-2.19-.65,2,2,0,0,1-.84-1.65h.86a1.42,1.42,0,0,0,.63,1.16,2.57,2.57,0,0,0,1.54.42,2.45,2.45,0,0,0,1.44-.39A1.16,1.16,0,0,0,130.91,40.06Z" transform="translate(-0.05 0.02)" style="fill:#2b2b2b"/><path d="M135,32.32v2h1.59V35H135v5.16a1.54,1.54,0,0,0,.23,1,.88.88,0,0,0,.77.31,5.38,5.38,0,0,0,.69-.07v.69a2.78,2.78,0,0,1-.91.12,1.55,1.55,0,0,1-1.28-.51,2.35,2.35,0,0,1-.4-1.5V35h-1.42v-.7h1.42v-2Z" transform="translate(-0.05 0.02)" style="fill:#2b2b2b"/><path d="M143.26,42a4.34,4.34,0,0,1-.16-1.08,3,3,0,0,1-1.15.91,3.53,3.53,0,0,1-1.47.31,2.6,2.6,0,0,1-1.81-.62A2,2,0,0,1,138,40a2.06,2.06,0,0,1,.93-1.78,4.56,4.56,0,0,1,2.62-.66h1.55v-.88a1.67,1.67,0,0,0-.51-1.3,2.08,2.08,0,0,0-1.49-.48,2.39,2.39,0,0,0-1.48.46,1.34,1.34,0,0,0-.58,1.1h-.86a2,2,0,0,1,.86-1.59,3.3,3.3,0,0,1,2.1-.68,3,3,0,0,1,2,.65,2.27,2.27,0,0,1,.77,1.8V40.3a4.32,4.32,0,0,0,.24,1.67v0Zm-2.68-.61a2.85,2.85,0,0,0,1.53-.42,2.42,2.42,0,0,0,1-1.1v-1.7h-1.53a3.85,3.85,0,0,0-2,.46,1.45,1.45,0,0,0-.24,2.33,1.83,1.83,0,0,0,1.24.45Z" transform="translate(-0.05 0.02)" style="fill:#2b2b2b"/><path d="M151.19,41a2.77,2.77,0,0,1-2.47,1.12,2.38,2.38,0,0,1-1.87-.71,3.15,3.15,0,0,1-.66-2.13v-5H147V39.2c0,1.48.59,2.21,1.78,2.21a2.19,2.19,0,0,0,2.35-1.53v-5.6H152V42h-.83Z" transform="translate(-0.05 0.02)" style="fill:#2b2b2b"/><path d="M157.82,35a3.79,3.79,0,0,0-.58,0,2.11,2.11,0,0,0-1.35.45,2.48,2.48,0,0,0-.79,1.3V42h-.85V34.29h.84v1.23a2.27,2.27,0,0,1,2.18-1.37,1.35,1.35,0,0,1,.56.1Z" transform="translate(-0.05 0.02)" style="fill:#2b2b2b"/><path d="M163.76,42a3.58,3.58,0,0,1-.16-1.08,3.19,3.19,0,0,1-1.15.91,3.61,3.61,0,0,1-1.48.31,2.57,2.57,0,0,1-1.8-.62,2,2,0,0,1-.69-1.57,2.05,2.05,0,0,1,.94-1.78,4.56,4.56,0,0,1,2.62-.66h1.55v-.88a1.67,1.67,0,0,0-.51-1.3,2.08,2.08,0,0,0-1.49-.48,2.33,2.33,0,0,0-1.48.46,1.34,1.34,0,0,0-.58,1.1h-.86a2,2,0,0,1,.86-1.59,3.3,3.3,0,0,1,2.1-.68,3,3,0,0,1,2,.65,2.33,2.33,0,0,1,.77,1.8v3.66a4.51,4.51,0,0,0,.23,1.67V42Zm-2.69-.61a2.88,2.88,0,0,0,1.54-.42,2.42,2.42,0,0,0,1-1.1v-1.7h-1.53a3.85,3.85,0,0,0-2,.46,1.45,1.45,0,0,0-.24,2.33,1.8,1.8,0,0,0,1.23.45Z" transform="translate(-0.05 0.02)" style="fill:#2b2b2b"/><path d="M167.53,34.29v1.33a3,3,0,0,1,1.08-1.09,2.9,2.9,0,0,1,1.44-.38,2.36,2.36,0,0,1,1.85.7,3.17,3.17,0,0,1,.61,2.1v5h-.85V36.94a2.34,2.34,0,0,0-.44-1.54,1.7,1.7,0,0,0-1.38-.51,2.16,2.16,0,0,0-1.4.5,2.85,2.85,0,0,0-.9,1.34V42h-.85V34.29Z" transform="translate(-0.05 0.02)" style="fill:#2b2b2b"/><path d="M176.08,32.32v2h1.59V35h-1.59v5.16a1.54,1.54,0,0,0,.23,1,.88.88,0,0,0,.77.31,5.38,5.38,0,0,0,.69-.07v.69a2.78,2.78,0,0,1-.91.12,1.49,1.49,0,0,1-1.28-.51,2.35,2.35,0,0,1-.4-1.5V35H173.8v-.7h1.42v-2Z" transform="translate(-0.05 0.02)" style="fill:#2b2b2b"/><path d="M184.07,40.06a1.18,1.18,0,0,0-.51-1,3.89,3.89,0,0,0-1.54-.61,6.83,6.83,0,0,1-1.59-.5,2.12,2.12,0,0,1-.85-.69,1.77,1.77,0,0,1-.27-1,1.83,1.83,0,0,1,.76-1.51,3.06,3.06,0,0,1,2-.6,3.21,3.21,0,0,1,2.07.64,2,2,0,0,1,.79,1.67H184a1.39,1.39,0,0,0-.57-1.13,2.55,2.55,0,0,0-2.78-.07,1.14,1.14,0,0,0-.51,1,1.06,1.06,0,0,0,.42.9,4.55,4.55,0,0,0,1.55.58,7.29,7.29,0,0,1,1.69.56,2.22,2.22,0,0,1,.83.72,2,2,0,0,1-.52,2.59,3.37,3.37,0,0,1-2.06.58,3.51,3.51,0,0,1-2.19-.65,2,2,0,0,1-.84-1.65h.86a1.42,1.42,0,0,0,.63,1.16,2.57,2.57,0,0,0,1.54.42,2.45,2.45,0,0,0,1.44-.39A1.16,1.16,0,0,0,184.07,40.06Z" transform="translate(-0.05 0.02)" style="fill:#2b2b2b"/><path d="M192.25,40.24l.13.67.17-.7,1.86-5.92h.73L197,40.16l.2.81.17-.75L199,34.29h.89L197.56,42h-.73l-2-6.13-.1-.42-.09.43L192.71,42H192l-2.24-7.73h.88Z" transform="translate(-0.05 0.02)" style="fill:#2b2b2b"/><path d="M201,38a4.45,4.45,0,0,1,.43-2,3.28,3.28,0,0,1,1.22-1.39,3.34,3.34,0,0,1,1.79-.5,3.18,3.18,0,0,1,2.5,1.08,4.21,4.21,0,0,1,.95,2.87v.18a4.62,4.62,0,0,1-.43,2,3.26,3.26,0,0,1-1.22,1.38,3.32,3.32,0,0,1-1.79.48A3.2,3.2,0,0,1,202,41a4.18,4.18,0,0,1-1-2.87Zm.85.24a3.5,3.5,0,0,0,.72,2.27,2.43,2.43,0,0,0,3.42.34,2.73,2.73,0,0,0,.34-.34,3.63,3.63,0,0,0,.71-2.34V38a3.91,3.91,0,0,0-.32-1.62,2.66,2.66,0,0,0-.93-1.14,2.43,2.43,0,0,0-3.22.5,3.58,3.58,0,0,0-.72,2.34Z" transform="translate(-0.05 0.02)" style="fill:#2b2b2b"/><path d="M213.19,35a3.79,3.79,0,0,0-.58,0,2,2,0,0,0-1.35.45,2.42,2.42,0,0,0-.79,1.3V42h-.85V34.29h.83v1.23a2.26,2.26,0,0,1,2.17-1.37,1.23,1.23,0,0,1,.57.1Z" transform="translate(-0.05 0.02)" style="fill:#2b2b2b"/><path d="M215.49,42h-.85V31h.85Z" transform="translate(-0.05 0.02)" style="fill:#2b2b2b"/><path d="M217.47,38.09a4.7,4.7,0,0,1,.8-2.87,2.6,2.6,0,0,1,2.19-1.07,2.68,2.68,0,0,1,2.38,1.24V31.05h.85V42h-.8V41a2.77,2.77,0,0,1-2.41,1.17,2.58,2.58,0,0,1-2.15-1.07,4.68,4.68,0,0,1-.82-2.9Zm.86.15a4.07,4.07,0,0,0,.6,2.33,1.89,1.89,0,0,0,1.67.85A2.3,2.3,0,0,0,222.84,40V36.4a2.3,2.3,0,0,0-2.23-1.51,2,2,0,0,0-1.68.85A4.3,4.3,0,0,0,218.33,38.24Z" transform="translate(-0.05 0.02)" style="fill:#2b2b2b"/><path d="M227.79,40.24l.13.67.17-.7,1.85-5.92h.73l1.84,5.87.2.81.16-.75,1.59-5.93h.88L233.09,42h-.73l-2-6.13-.09-.42-.1.43L228.24,42h-.72l-2.25-7.73h.88Z" transform="translate(-0.05 0.02)" style="fill:#2b2b2b"/><path d="M236.91,32.06a.56.56,0,0,1,.55-.57h0a.54.54,0,0,1,.43.17.55.55,0,0,1,.16.4.57.57,0,0,1-.16.41.56.56,0,0,1-.43.16.56.56,0,0,1-.59-.51Zm1,10h-.86V34.29h.86Z" transform="translate(-0.05 0.02)" style="fill:#2b2b2b"/><path d="M239.9,38.09a4.58,4.58,0,0,1,.8-2.87,2.57,2.57,0,0,1,2.18-1.07,2.7,2.7,0,0,1,2.39,1.24V31.05h.85V42h-.8V41a2.77,2.77,0,0,1-2.41,1.17,2.6,2.6,0,0,1-2.16-1.07,4.74,4.74,0,0,1-.81-2.9Zm.86.15a4.06,4.06,0,0,0,.59,2.33,1.94,1.94,0,0,0,1.67.85A2.31,2.31,0,0,0,245.27,40V36.4A2.28,2.28,0,0,0,243,34.89a2,2,0,0,0-1.68.85A4.29,4.29,0,0,0,240.76,38.24Z" transform="translate(-0.05 0.02)" style="fill:#2b2b2b"/><path d="M251.36,42.16a3.41,3.41,0,0,1-1.79-.48,3.29,3.29,0,0,1-1.23-1.36,4.1,4.1,0,0,1-.45-1.94v-.31a4.62,4.62,0,0,1,.43-2,3.44,3.44,0,0,1,1.21-1.41,3,3,0,0,1,1.67-.51,2.77,2.77,0,0,1,2.23,1,4,4,0,0,1,.82,2.63v.47h-5.51v.17a3.19,3.19,0,0,0,.76,2.19,2.41,2.41,0,0,0,1.89.87,2.79,2.79,0,0,0,1.21-.25,2.52,2.52,0,0,0,1-.8l.54.41A3.12,3.12,0,0,1,251.36,42.16Zm-.16-7.28a2.16,2.16,0,0,0-1.63.71,3.34,3.34,0,0,0-.8,1.9h4.63v-.1a2.77,2.77,0,0,0-.63-1.81A2,2,0,0,0,251.2,34.88Z" transform="translate(-0.05 0.02)" style="fill:#2b2b2b"/><path d="M255.9,41.52a.66.66,0,0,1,.15-.42.57.57,0,0,1,.43-.17.57.57,0,0,1,.59.59.55.55,0,0,1-.16.4.58.58,0,0,1-.43.16.62.62,0,0,1-.43-.16A.59.59,0,0,1,255.9,41.52Zm.93-2.4H256v-7.5h.88Z" transform="translate(-0.05 0.02)" style="fill:#2b2b2b"/><path d="M20.19,7.91V4.12l.75,1.08,3.3,4.72.43.63a.88.88,0,0,0,1.07.32L30.4,9.23c1.68-.59,3.36-1.17,5-1.78A4.18,4.18,0,0,1,37,7.1a2.9,2.9,0,0,1,2.24,1.13,3.12,3.12,0,0,1,.68,1.95,3.44,3.44,0,0,1-.83,2.27c-.57.71-1.1,1.46-1.66,2.19l-1.85,2.43L33,20.49a2.8,2.8,0,0,0-.25.35A1,1,0,0,0,33,21.93c.36.47.71.95,1.08,1.42l1.81,2.33c.51.65,1,1.31,1.51,2L39,29.78a5,5,0,0,1,.91,1.51c0,.24.05.48.09.71v.2a0,0,0,0,0,0,.07,3,3,0,0,1-.48,1.56,2.89,2.89,0,0,1-3.28,1.39,26.13,26.13,0,0,1-2.58-.88c-1.81-.64-3.63-1.26-5.45-1.89L26,31.7a1.07,1.07,0,0,0-1.29.25,8,8,0,0,0-.6.84c-.67,1-1.35,1.92-2,2.88L19,40.32a4.13,4.13,0,0,1-1.18,1.35,5.53,5.53,0,0,1-1.1.45H15.6a5.13,5.13,0,0,1-1-.41,3,3,0,0,1-1.33-2,4.24,4.24,0,0,1-.11-.94V17.15a6.19,6.19,0,0,1,.62-2.93,3.52,3.52,0,0,1,1.85-1.79,1.49,1.49,0,0,0,.77-.93,5,5,0,0,0,.27-1.38c.1-2.9,0-5.79,0-8.68a1.08,1.08,0,0,1,.61-1h.66c.26.14.55.26.63.6a1,1,0,0,1,0,.24v8.94a5.31,5.31,0,0,1-.85,3,3.46,3.46,0,0,1-1.3,1.13A2.6,2.6,0,0,0,15.14,16,4.77,4.77,0,0,0,15,17.36V38.85A1.22,1.22,0,0,0,16.31,40l.23,0a1.7,1.7,0,0,0,.67-.66c.21-.29.39-.6.58-.91l1.12-1.61,3.54-5.2A5,5,0,0,1,24,29.82a3.16,3.16,0,0,1,2.19-.36,25.64,25.64,0,0,1,2.56.86L33.9,32.1c1,.33,1.89.68,2.85,1a.78.78,0,0,0,.88-.27.91.91,0,0,0,.24-1,3.44,3.44,0,0,0-.69-1c-1-1.35-2.07-2.69-3.1-4-.82-1.06-1.62-2.15-2.46-3.2a3.52,3.52,0,0,1-1-2.84,2.83,2.83,0,0,1,.42-1.2c.53-.8,1.15-1.54,1.72-2.31.79-1.07,1.59-2.12,2.38-3.17s1.66-2.17,2.48-3.26a.8.8,0,0,0,.2-.55,1,1,0,0,0-.93-1.06,1,1,0,0,0-.42.06c-1,.34-2,.71-2.93,1-2.18.77-4.36,1.52-6.52,2.31a4.18,4.18,0,0,1-2.29.3A2.75,2.75,0,0,1,23,12c-.81-1.1-1.57-2.25-2.36-3.37A3.87,3.87,0,0,0,20.19,7.91Z" transform="translate(-0.05 0.02)" style="fill:#2d3132"/><path d="M7.27.39a1.08,1.08,0,0,1,.57,1.09V10a4.14,4.14,0,0,0,.39,1.8,1.6,1.6,0,0,0,.82.78A3.66,3.66,0,0,1,10.61,14a5.53,5.53,0,0,1,.78,2.29,9.11,9.11,0,0,1,0,1.28V41a.9.9,0,0,1-.85.9,1,1,0,0,1-.92-.64,1,1,0,0,1,0-.25V17.1A3.76,3.76,0,0,0,9,14.94a2,2,0,0,0-.74-.66,3.72,3.72,0,0,1-2-2.59A7.11,7.11,0,0,1,6,10.24C5.94,7.82,6,5.39,6,3V1.57A1.17,1.17,0,0,1,6.61.39Z" transform="translate(-0.05 0.02)" style="fill:#2d3132"/><path d="M8,23.71c.12,0,.1.09.1.16v2c0,.18-.07.18-.19.14L4.46,25c-.8-.23-1.61-.41-2.38-.69A2.93,2.93,0,0,1,.05,22h0V20.67a4.72,4.72,0,0,1,.45-1,3.11,3.11,0,0,1,1.8-1.25c.89-.25,1.77-.54,2.66-.81l3-.95v2.18l-2,.61-3.12.92a1,1,0,0,0,0,1.92l4.2,1.21A3.72,3.72,0,0,0,8,23.71Z" transform="translate(-0.05 0.02)" style="fill:#2d3132"/><path d="M11.44,5.85v4.21a1.27,1.27,0,0,1-.19.76,1,1,0,0,1-.94.34.85.85,0,0,1-.7-.71,3.21,3.21,0,0,1,0-.62V1.6a.94.94,0,0,1,.63-1,.91.91,0,0,1,1.16.55.74.74,0,0,1,0,.14,19.05,19.05,0,0,1,0,2C11.45,4.1,11.44,5,11.44,5.85Z" transform="translate(-0.05 0.02)" style="fill:#2d3132"/><path d="M14.89,5.86v4.42a.82.82,0,0,1-.76.88h0a.87.87,0,0,1-1-.68,1.27,1.27,0,0,1,0-.39V1.55a.93.93,0,0,1,.89-1,.89.89,0,0,1,.48.11.72.72,0,0,1,.39.7C14.9,2.88,14.89,4.37,14.89,5.86Z" transform="translate(-0.05 0.02)" style="fill:#2d3132"/><path d="M8,23.71a3.47,3.47,0,0,1-.9-.21L2.87,22.29a1,1,0,0,1,0-1.92L6,19.45l2-.61Z" transform="translate(-0.05 0.02)" style="fill:#d61516"/><path d="M20.19,7.91a3.53,3.53,0,0,1,.49.66c.79,1.12,1.55,2.27,2.36,3.37a2.75,2.75,0,0,0,1.72,1,4.18,4.18,0,0,0,2.29-.3c2.16-.79,4.34-1.54,6.52-2.31,1-.34,2-.71,2.93-1.05a1,1,0,0,1,1.29.58,1,1,0,0,1,.06.42.8.8,0,0,1-.2.55C36.83,11.92,36,13,35.17,14.09s-1.59,2.1-2.38,3.17c-.57.77-1.19,1.51-1.72,2.31a2.83,2.83,0,0,0-.42,1.2,3.52,3.52,0,0,0,1,2.84c.84,1.05,1.64,2.14,2.46,3.2,1,1.35,2.08,2.69,3.1,4a3.44,3.44,0,0,1,.69,1,.91.91,0,0,1-.24,1,.78.78,0,0,1-.88.27c-1-.3-1.9-.65-2.85-1L28.79,30.3a25.64,25.64,0,0,0-2.56-.86A3.16,3.16,0,0,0,24,29.8a5,5,0,0,0-1.57,1.73l-3.54,5.2-1.12,1.61h-.27c-.54,0-.69-.25-.84-.7a2.35,2.35,0,0,1-.05-.65c-.1-2.87,0-5.73-.06-8.6-.08-3.82,0-7.63,0-11.45A2.46,2.46,0,0,1,17,15.7a.69.69,0,0,1,.35-.28,5.24,5.24,0,0,0,2.63-3.55A10,10,0,0,0,20.21,10,20.38,20.38,0,0,1,20.19,7.91Z" transform="translate(-0.05 0.02)" style="fill:#d61516"/></svg>