<?xml version="1.0" standalone="no"?>
<svg xmlns:xlink="http://www.w3.org/1999/xlink" id="wave" style="transform:rotate(0deg); transition: 0.3s" viewBox="0 0 1440 170" version="1.1" xmlns="http://www.w3.org/2000/svg"><defs><linearGradient id="sw-gradient-0" x1="0" x2="0" y1="1" y2="0"><stop stop-color="rgba(243, 106, 62, 1)" offset="0%"/><stop stop-color="rgba(255, 179, 11, 1)" offset="100%"/></linearGradient></defs><path style="transform:translate(0, 0px); opacity:1" fill="url(#sw-gradient-0)" d="M0,68L34.3,73.7C68.6,79,137,91,206,102C274.3,113,343,125,411,133.2C480,142,549,147,617,127.5C685.7,108,754,62,823,59.5C891.4,57,960,96,1029,96.3C1097.1,96,1166,57,1234,51C1302.9,45,1371,74,1440,93.5C1508.6,113,1577,125,1646,116.2C1714.3,108,1783,79,1851,82.2C1920,85,1989,119,2057,110.5C2125.7,102,2194,51,2263,34C2331.4,17,2400,34,2469,36.8C2537.1,40,2606,28,2674,25.5C2742.9,23,2811,28,2880,42.5C2948.6,57,3017,79,3086,73.7C3154.3,68,3223,34,3291,17C3360,0,3429,0,3497,17C3565.7,34,3634,68,3703,70.8C3771.4,74,3840,45,3909,28.3C3977.1,11,4046,6,4114,2.8C4182.9,0,4251,0,4320,2.8C4388.6,6,4457,11,4526,28.3C4594.3,45,4663,74,4731,70.8C4800,68,4869,34,4903,17L4937.1,0L4937.1,170L4902.9,170C4868.6,170,4800,170,4731,170C4662.9,170,4594,170,4526,170C4457.1,170,4389,170,4320,170C4251.4,170,4183,170,4114,170C4045.7,170,3977,170,3909,170C3840,170,3771,170,3703,170C3634.3,170,3566,170,3497,170C3428.6,170,3360,170,3291,170C3222.9,170,3154,170,3086,170C3017.1,170,2949,170,2880,170C2811.4,170,2743,170,2674,170C2605.7,170,2537,170,2469,170C2400,170,2331,170,2263,170C2194.3,170,2126,170,2057,170C1988.6,170,1920,170,1851,170C1782.9,170,1714,170,1646,170C1577.1,170,1509,170,1440,170C1371.4,170,1303,170,1234,170C1165.7,170,1097,170,1029,170C960,170,891,170,823,170C754.3,170,686,170,617,170C548.6,170,480,170,411,170C342.9,170,274,170,206,170C137.1,170,69,170,34,170L0,170Z"/></svg>